<?xml version="1.0" encoding="UTF-8" standalone="no"?>
<!-- Uploaded to: SVG Repo, www.svgrepo.com, Generator: SVG Repo Mixer Tools -->

<svg
        width="800px"
        height="800px"
        viewBox="0 0 24 24"
        fill="none"
        version="1.1"
        id="svg2"
        sodipodi:docname="visible-svgrepo-com.svg"
        inkscape:version="1.3.2 (091e20e, 2023-11-25)"
        xmlns:inkscape="http://www.inkscape.org/namespaces/inkscape"
        xmlns:sodipodi="http://sodipodi.sourceforge.net/DTD/sodipodi-0.dtd"
        xmlns="http://www.w3.org/2000/svg"
>
  <defs
     id="defs2" />
  <sodipodi:namedview
     id="namedview2"
     pagecolor="#ffffff"
     bordercolor="#000000"
     borderopacity="0.25"
     inkscape:showpageshadow="2"
     inkscape:pageopacity="0.0"
     inkscape:pagecheckerboard="0"
     inkscape:deskcolor="#d1d1d1"
     showgrid="false"
     inkscape:zoom="0.825"
     inkscape:cx="400"
     inkscape:cy="399.39394"
     inkscape:window-width="1876"
     inkscape:window-height="1011"
     inkscape:window-x="0"
     inkscape:window-y="0"
     inkscape:window-maximized="1"
     inkscape:current-layer="svg2" />
  <path
     d="M12 7C7.60743 7 4.49054 10.5081 3.41345 11.9208C3.15417 12.2609 3.17881 12.7211 3.4696 13.0347C4.66556 14.3243 8.01521 17.5 12 17.5C15.9848 17.5 19.3344 14.3243 20.5304 13.0347C20.8212 12.7211 20.8458 12.2609 20.5865 11.9208C19.5095 10.5081 16.3926 7 12 7Z"
     stroke="#000000"
     stroke-width="2"
     id="path1"
     style="stroke:#ffffff;stroke-opacity:1" />
  <path
     d="M14 12C14 13.1046 13.1046 14 12 14C10.8954 14 10 13.1046 10 12C10 10.8954 10.8954 10 12 10C13.1046 10 14 10.8954 14 12Z"
     fill="#000000"
     id="path2"
     style="fill:#ffffff;fill-opacity:1" />
</svg>
